<svg xmlns="http://www.w3.org/2000/svg" width="64.305" height="64.269" viewBox="0 0 64.305 64.269">
  <g id="Group_74" data-name="Group 74" transform="translate(-10 -10.046)">
    <path id="Path_881" data-name="Path 881" d="M57.245,17.2l-6.414-.932-2.869-5.812a.836.836,0,0,0-1.441,0L43.653,16.27l-6.414.932a.8.8,0,0,0-.445,1.371L41.435,23.1l-1.1,6.389a.8.8,0,0,0,1.166.847l5.737-3.017,5.736,3.017a.816.816,0,0,0,.375.092.8.8,0,0,0,.792-.939l-1.1-6.389,4.642-4.524a.8.8,0,0,0-.446-1.371Zm-5.62,5.039a.8.8,0,0,0-.231.711l.891,5.2L47.616,25.7a.8.8,0,0,0-.748,0L42.2,28.151l.892-5.2a.8.8,0,0,0-.231-.711l-3.778-3.682L44.3,17.8a.8.8,0,0,0,.605-.44l2.335-4.73,2.335,4.73a.8.8,0,0,0,.605.44l5.22.759Z" transform="translate(-5.209 0)" fill="#ec1218"/>
    <path id="Path_882" data-name="Path 882" d="M27.028,26.315a.811.811,0,0,0-.819-.225l-5.357,1.586-4.344-3.514a.8.8,0,0,0-1.309.6l-.147,5.586L10.366,33.4a.8.8,0,0,0,.17,1.432L15.8,36.693l1.448,5.4a.8.8,0,0,0,1.413.281l3.4-4.432,5.58.29a.8.8,0,0,0,.7-1.258l-3.164-4.606,2-5.218A.8.8,0,0,0,27.028,26.315ZM26.1,36.539l-4.375-.227a.79.79,0,0,0-.679.313L18.381,40.1l-1.136-4.232a.8.8,0,0,0-.508-.549l-4.13-1.464,3.673-2.388a.8.8,0,0,0,.367-.653l.115-4.38,3.406,2.755a.8.8,0,0,0,.734.146l4.2-1.243-1.568,4.091a.8.8,0,0,0,.088.743Z" transform="translate(0 -2.734)" fill="#ec1218"/>
    <path id="Path_883" data-name="Path 883" d="M67.1,37.819a.8.8,0,0,0,.744.411l5.58-.29,3.4,4.432a.8.8,0,0,0,1.413-.281l1.448-5.4,5.267-1.866a.8.8,0,0,0,.17-1.432l-4.685-3.046-.147-5.586a.8.8,0,0,0-1.309-.6l-4.344,3.514L69.277,26.09a.8.8,0,0,0-.979,1.059l2,5.218-3.164,4.606A.8.8,0,0,0,67.1,37.819Zm4.768-4.891a.8.8,0,0,0,.088-.743l-1.568-4.091,4.2,1.243a.8.8,0,0,0,.734-.146l3.406-2.755.115,4.38a.8.8,0,0,0,.367.653l3.673,2.388-4.13,1.464a.8.8,0,0,0-.508.549L77.1,40.1l-2.669-3.476a.8.8,0,0,0-.637-.314h-.042l-4.375.227Z" transform="translate(-11.182 -2.734)" fill="#ec1218"/>
    <path id="Path_884" data-name="Path 884" d="M28.013,46.115a.8.8,0,0,0,.01,1.137C42.177,61.17,41,80.291,40.987,80.482a.8.8,0,0,0,.744.859c.019,0,.039,0,.058,0a.8.8,0,0,0,.8-.746c.015-.2,1.258-20.04-13.44-34.491A.8.8,0,0,0,28.013,46.115Z" transform="translate(-3.489 -7.029)" fill="#ec1218"/>
    <path id="Path_885" data-name="Path 885" d="M53.538,80.6a.8.8,0,0,0,.8.746c.018,0,.039,0,.058,0a.8.8,0,0,0,.744-.858c-.014-.192-1.189-19.313,12.965-33.231a.8.8,0,0,0-1.127-1.146C52.281,60.557,53.523,80.4,53.538,80.6Z" transform="translate(-8.536 -7.029)" fill="#ec1218"/>
    <path id="Path_886" data-name="Path 886" d="M10.8,63.064A20.557,20.557,0,0,1,31.338,83.6a.8.8,0,1,0,1.608,0A22.167,22.167,0,0,0,10.8,61.456a.8.8,0,1,0,0,1.608Z" transform="translate(0 -10.086)" fill="#ec1218"/>
    <path id="Path_887" data-name="Path 887" d="M83.6,61.456A22.167,22.167,0,0,0,61.454,83.6a.8.8,0,1,0,1.608,0A20.557,20.557,0,0,1,83.6,63.064a.8.8,0,0,0,0-1.608Z" transform="translate(-10.095 -10.086)" fill="#ec1218"/>
    <path id="Path_888" data-name="Path 888" d="M48.852,38.429V57.584a.8.8,0,1,0,1.608,0V38.429a.8.8,0,1,0-1.608,0Z" transform="translate(-7.623 -5.411)" fill="#ec1218"/>
  </g>
</svg>
