<svg xmlns="http://www.w3.org/2000/svg" width="61.958" height="61.958" viewBox="0 0 61.958 61.958">
  <g id="Group_469" data-name="Group 469" transform="translate(-1 -1)">
    <g id="Group_119" data-name="Group 119" transform="translate(1 1)">
      <g id="Group_118" data-name="Group 118">
        <path id="Path_917" data-name="Path 917" d="M53.852,35.64A9.077,9.077,0,0,0,54.7,17.522v-.939A13.5,13.5,0,0,0,41.179,3.159,13.668,13.668,0,0,0,31.7,7.008,13.473,13.473,0,0,0,7.008,14.424a13.962,13.962,0,0,0,.469,3.38A9.069,9.069,0,0,0,1,26.44a9.176,9.176,0,0,0,9.106,9.106h10.7V62.019a.939.939,0,1,0,1.878,0v-3H41.179v3a.939.939,0,0,0,1.878,0V35.64ZM10.106,33.763a7.231,7.231,0,0,1-7.228-7.228,7.069,7.069,0,0,1,5.914-7.041,1.086,1.086,0,0,0,.657-.469,1.112,1.112,0,0,0,.094-.751,10.561,10.561,0,0,1-.657-3.755A11.637,11.637,0,0,1,30.759,8.979a.836.836,0,0,0,.751.469,1.019,1.019,0,0,0,.845-.376A11.658,11.658,0,0,1,52.914,16.49a13.191,13.191,0,0,1-.188,1.69,1.011,1.011,0,0,0,.188.751,1.066,1.066,0,0,0,.751.282h.282a7.228,7.228,0,0,1,0,14.457H43.15V27.285a.939.939,0,1,0-1.878,0v3H22.685v-3a.939.939,0,0,0-1.878,0v6.384h-10.7Zm12.579.939h0V32.261H41.179V39.3H22.685Zm0,6.477H41.179V48.22H22.685Zm0,15.959V50.1H41.179v7.041Z" transform="translate(-1 -1)" fill="#ec1218"/>
      </g>
    </g>
    <g id="Group_121" data-name="Group 121" transform="translate(45.905 37.987)">
      <g id="Group_120" data-name="Group 120">
        <path id="Path_918" data-name="Path 918" d="M57.251,40.776A.854.854,0,0,0,56.5,40.4h0a1.159,1.159,0,0,0-.751.375L48.99,50.539a1.111,1.111,0,0,0-.094.939.986.986,0,0,0,.845.469h2.816l.094,10.89v.094a.926.926,0,0,0,.939.845H59.5a.941.941,0,0,0,.939-.939h0l-.094-10.984h2.816a.986.986,0,0,0,.845-.469.864.864,0,0,0-.094-.939Zm2.159,9.294a.963.963,0,0,0-.939.939l.094,10.984H54.529L54.435,51.1a.963.963,0,0,0-.939-.939H51.525l4.882-7.135,4.975,7.135Z" transform="translate(-48.834 -40.4)" fill="#ec1218"/>
      </g>
    </g>
    <g id="Group_123" data-name="Group 123" transform="translate(2.722 37.987)">
      <g id="Group_122" data-name="Group 122">
        <path id="Path_919" data-name="Path 919" d="M11.251,40.776A.854.854,0,0,0,10.5,40.4h0a1.159,1.159,0,0,0-.751.375L2.99,50.539a1.111,1.111,0,0,0-.094.939.986.986,0,0,0,.845.469H6.557l.094,10.89a.794.794,0,0,0,.188.563.854.854,0,0,0,.751.376h5.726a.947.947,0,0,0,1.127-.939h0l-.094-10.984h2.816a.986.986,0,0,0,.845-.469.864.864,0,0,0-.094-.939ZM13.5,50.069a.963.963,0,0,0-.939.939l.094,10.984H8.529V51.008a.963.963,0,0,0-.939-.939H5.618L10.5,42.935l4.975,7.135Z" transform="translate(-2.834 -40.4)" fill="#ec1218"/>
      </g>
    </g>
  </g>
</svg>
