<svg xmlns="http://www.w3.org/2000/svg" width="63.955" height="63.858" viewBox="0 0 63.955 63.858">
  <g id="Group_471" data-name="Group 471" transform="translate(-490.045 -2772.239)">
    <g id="Group_90" data-name="Group 90" transform="translate(512.583 2789.1)">
      <g id="Group_89" data-name="Group 89">
        <path id="Path_903" data-name="Path 903" d="M30.307,33.9a3.784,3.784,0,0,0,3.779-3.779,3.642,3.642,0,0,0-2.81-3.585V19.369a.969.969,0,0,0-1.938,0V26.54a3.642,3.642,0,0,0-2.81,3.585,3.578,3.578,0,0,0,1.066,2.616l-3.2,5.33a1,1,0,0,0,1.744.969l3.2-5.33A3.443,3.443,0,0,0,30.307,33.9Zm0-5.62a1.841,1.841,0,1,1-1.841,1.841A1.979,1.979,0,0,1,30.307,28.284Z" transform="translate(-24.259 -18.4)" fill="#ec1218"/>
      </g>
    </g>
    <g id="Group_92" data-name="Group 92" transform="translate(517.662 2783.189)">
      <g id="Group_91" data-name="Group 91">
        <path id="Path_904" data-name="Path 904" d="M30.469,16.079a.916.916,0,0,0,.969-.969V13.269a.969.969,0,0,0-1.938,0V15.11A.971.971,0,0,0,30.469,16.079Z" transform="translate(-29.5 -12.3)" fill="#ec1218"/>
      </g>
    </g>
    <g id="Group_94" data-name="Group 94" transform="translate(517.662 2814.682)">
      <g id="Group_93" data-name="Group 93">
        <path id="Path_905" data-name="Path 905" d="M30.469,44.8a.916.916,0,0,0-.969.969V47.61a.969.969,0,0,0,1.938,0V45.769A.916.916,0,0,0,30.469,44.8Z" transform="translate(-29.5 -44.8)" fill="#ec1218"/>
      </g>
    </g>
    <g id="Group_96" data-name="Group 96" transform="translate(501.092 2799.856)">
      <g id="Group_95" data-name="Group 95">
        <path id="Path_906" data-name="Path 906" d="M16.179,30.469a.916.916,0,0,0-.969-.969H13.369a.969.969,0,1,0,0,1.938H15.21A.971.971,0,0,0,16.179,30.469Z" transform="translate(-12.4 -29.5)" fill="#ec1218"/>
      </g>
    </g>
    <g id="Group_98" data-name="Group 98" transform="translate(532.488 2799.856)">
      <g id="Group_97" data-name="Group 97">
        <path id="Path_907" data-name="Path 907" d="M44.8,30.469a.916.916,0,0,0,.969.969H47.61a.969.969,0,0,0,0-1.938H45.769A1.042,1.042,0,0,0,44.8,30.469Z" transform="translate(-44.8 -29.5)" fill="#ec1218"/>
      </g>
    </g>
    <g id="Group_100" data-name="Group 100" transform="translate(503.281 2791.483)">
      <g id="Group_99" data-name="Group 99">
        <path id="Path_908" data-name="Path 908" d="M15.183,22.74l1.55.872a1,1,0,1,0,.969-1.744L16.152,21a1,1,0,0,0-.969,1.744Z" transform="translate(-14.659 -20.859)" fill="#ec1218"/>
      </g>
    </g>
    <g id="Group_102" data-name="Group 102" transform="translate(509.386 2812.705)">
      <g id="Group_101" data-name="Group 101">
        <path id="Path_909" data-name="Path 909" d="M23.324,42.9a.98.98,0,0,0-1.357.388l-.872,1.55a1,1,0,0,0,1.744.969l.872-1.55A.98.98,0,0,0,23.324,42.9Z" transform="translate(-20.959 -42.759)" fill="#ec1218"/>
      </g>
    </g>
    <g id="Group_104" data-name="Group 104" transform="translate(525.084 2785.378)">
      <g id="Group_103" data-name="Group 103">
        <path id="Path_910" data-name="Path 910" d="M37.683,17.99A.98.98,0,0,0,39.04,17.6l.872-1.55a1,1,0,1,0-1.744-.969l-.872,1.55A.935.935,0,0,0,37.683,17.99Z" transform="translate(-37.159 -14.559)" fill="#ec1218"/>
      </g>
    </g>
    <g id="Group_106" data-name="Group 106" transform="translate(509.068 2785.545)">
      <g id="Group_105" data-name="Group 105">
        <path id="Path_911" data-name="Path 911" d="M23.12,18.093a.953.953,0,0,0,.291-1.357l-.969-1.55a.981.981,0,0,0-1.647,1.066l.969,1.55A.984.984,0,0,0,23.12,18.093Z" transform="translate(-20.631 -14.731)" fill="#ec1218"/>
      </g>
    </g>
    <g id="Group_108" data-name="Group 108" transform="translate(503.448 2807.445)">
      <g id="Group_107" data-name="Group 107">
        <path id="Path_912" data-name="Path 912" d="M16.836,37.495l-1.55.969a.981.981,0,0,0,1.066,1.647l1.55-.969a.981.981,0,1,0-1.066-1.647Z" transform="translate(-14.831 -37.331)" fill="#ec1218"/>
      </g>
    </g>
    <g id="Group_110" data-name="Group 110" transform="translate(530.386 2791.359)">
      <g id="Group_109" data-name="Group 109">
        <path id="Path_913" data-name="Path 913" d="M44.151,23.511l1.55-.969a.981.981,0,1,0-1.066-1.647l-1.55.969a.953.953,0,0,0-.291,1.357A1.043,1.043,0,0,0,44.151,23.511Z" transform="translate(-42.631 -20.731)" fill="#ec1218"/>
      </g>
    </g>
    <g id="Group_112" data-name="Group 112" transform="translate(490.045 2772.239)">
      <g id="Group_111" data-name="Group 111">
        <path id="Path_914" data-name="Path 914" d="M2.938,29.586a26.708,26.708,0,0,1,43.7-20.543l-3.682-.291a1.054,1.054,0,0,0-1.066.872,1.054,1.054,0,0,0,.872,1.066l6.4.388a.881.881,0,0,0,.775-.388h0a.87.87,0,0,0,.194-.872L48.676,3.907a.952.952,0,0,0-1.841.485L47.61,7.3A28.677,28.677,0,0,0,1,29.586,28.285,28.285,0,0,0,6.136,45.962a.869.869,0,0,0,1.357.194A.869.869,0,0,0,7.686,44.8,26.446,26.446,0,0,1,2.938,29.586Z" transform="translate(-1 -1)" fill="#ec1218"/>
      </g>
    </g>
    <g id="Group_114" data-name="Group 114" transform="translate(497.797 2779.991)">
      <g id="Group_113" data-name="Group 113">
        <path id="Path_915" data-name="Path 915" d="M64.331,46.113l-3-.485a12.684,12.684,0,0,0-1.454-3.585l1.841-2.423a1.038,1.038,0,0,0-.1-1.357L59.2,35.842a.913.913,0,0,0-1.26-.1h-.1a30.841,30.841,0,0,0,.678-6.008,29.188,29.188,0,0,0-4.942-16.183.981.981,0,0,0-1.647,1.066,26.936,26.936,0,0,1,4.651,15.02,25.44,25.44,0,0,1-1.163,7.752,11.092,11.092,0,0,0-3.488-1.454l-.388-2.713a.848.848,0,0,0-.872-.775,22.048,22.048,0,0,0,.194-2.519A20.931,20.931,0,1,0,29.931,50.862a20.461,20.461,0,0,0,2.519-.194,1.042,1.042,0,0,0,.775.872l3,.388a13.071,13.071,0,0,0,1.357,3.392,25.44,25.44,0,0,1-7.752,1.163,27.042,27.042,0,0,1-16.958-6.008l3.1.1h0a.971.971,0,0,0,.969-.969.916.916,0,0,0-.969-.969l-5.717-.194a.881.881,0,0,0-.775.388.754.754,0,0,0-.194.775l1.163,5.523a1.063,1.063,0,0,0,1.163.775,1,1,0,0,0,.775-1.163l-.485-2.616a28.458,28.458,0,0,0,17.927,6.3,26.206,26.206,0,0,0,6.1-.678l-.1.1a.906.906,0,0,0,.1,1.26l2.423,2.423a.913.913,0,0,0,1.26.1l2.423-1.841a11.629,11.629,0,0,0,3.585,1.454l.388,3a1.03,1.03,0,0,0,.969.872h3.488a1.03,1.03,0,0,0,.969-.872l.388-3a12.684,12.684,0,0,0,3.585-1.454l2.423,1.841a1.16,1.16,0,0,0,1.357-.1L61.618,59.1a.913.913,0,0,0,.1-1.26l-1.841-2.423a11.629,11.629,0,0,0,1.454-3.585l3-.388a1.03,1.03,0,0,0,.872-.969V46.985A.937.937,0,0,0,64.331,46.113ZM10.841,29.834a18.993,18.993,0,1,1,37.985,0,22.047,22.047,0,0,1-.194,2.519H46.985a1.03,1.03,0,0,0-.969.872l-.388,3a12.684,12.684,0,0,0-3.585,1.454l-2.423-1.841a.906.906,0,0,0-1.26.1l-2.423,2.423a.913.913,0,0,0-.1,1.26l1.841,2.423a11.629,11.629,0,0,0-1.454,3.585l-3,.485a1.03,1.03,0,0,0-.872.969V48.73a22.047,22.047,0,0,1-2.519.194A19.17,19.17,0,0,1,10.841,29.834ZM63.265,49.7l-2.81.388a1.183,1.183,0,0,0-.872.775,11.243,11.243,0,0,1-1.744,4.167,1.235,1.235,0,0,0,0,1.163l1.744,2.326L58.42,59.68l-2.326-1.744a.882.882,0,0,0-1.163,0,10.814,10.814,0,0,1-4.07,1.744,1.042,1.042,0,0,0-.775.872L49.7,63.265H47.955l-.388-2.907a1.183,1.183,0,0,0-.775-.872,10.193,10.193,0,0,1-4.07-1.744,1.235,1.235,0,0,0-1.163,0l-2.326,1.744-1.26-1.066,1.744-2.229a.884.884,0,0,0,0-1.163,10.62,10.62,0,0,1-1.647-4.07,1.042,1.042,0,0,0-.872-.775l-2.81-.485V47.858l2.81-.388a1.183,1.183,0,0,0,.872-.775,11.243,11.243,0,0,1,1.744-4.167,1.236,1.236,0,0,0,0-1.163L38.071,39.04l1.26-1.26,2.229,1.744a.884.884,0,0,0,1.163,0,10.62,10.62,0,0,1,4.07-1.647A1.042,1.042,0,0,0,47.567,37l.388-2.907H49.7L50.086,37a1.183,1.183,0,0,0,.775.872,10.193,10.193,0,0,1,4.07,1.744,1.235,1.235,0,0,0,1.163,0l2.326-1.744,1.26,1.26-1.744,2.326a.882.882,0,0,0,0,1.163,10.608,10.608,0,0,1,1.744,4.167,1.042,1.042,0,0,0,.872.775l2.81.388V49.7Z" transform="translate(-9 -9)" fill="#ec1218"/>
      </g>
    </g>
    <g id="Group_116" data-name="Group 116" transform="translate(529.29 2811.484)">
      <g id="Group_115" data-name="Group 115">
        <path id="Path_916" data-name="Path 916" d="M49.834,41.5a8.334,8.334,0,1,0,8.334,8.334A8.4,8.4,0,0,0,49.834,41.5Zm0,14.632a6.4,6.4,0,1,1,6.4-6.4A6.452,6.452,0,0,1,49.834,56.132Z" transform="translate(-41.5 -41.5)" fill="#ec1218"/>
      </g>
    </g>
  </g>
</svg>
