<svg xmlns="http://www.w3.org/2000/svg" width="59.359" height="59.359" viewBox="0 0 59.359 59.359">
  <g id="Group_472" data-name="Group 472" transform="translate(-1 -1)">
    <g id="Group_76" data-name="Group 76" transform="translate(1 1)">
      <g id="Group_75" data-name="Group 75">
        <path id="Path_889" data-name="Path 889" d="M60.359,1.9a.85.85,0,0,0-.9-.9H1.9a.85.85,0,0,0-.9.9V33.827a.85.85,0,0,0,.9.9H13.052l.09,8.814H9.454a.945.945,0,0,0-.809.45.827.827,0,0,0,.09.9l8.184,11.872a.818.818,0,0,0,.72.36h0a1.11,1.11,0,0,0,.72-.36L26.452,44.8a1.064,1.064,0,0,0,.09-.9.945.945,0,0,0-.809-.45H22.046l-.09-8.814H39.134l.09,8.814H35.536a.945.945,0,0,0-.809.45.827.827,0,0,0,.09.9L43,56.672a.818.818,0,0,0,.72.36h0a1.11,1.11,0,0,0,.72-.36L52.535,44.71a1.064,1.064,0,0,0,.09-.9.945.945,0,0,0-.809-.45H48.128l-.09-8.814H59.46a.85.85,0,0,0,.9-.9ZM11.253,32.928A9.518,9.518,0,0,0,2.8,24.114V11.523a9.518,9.518,0,0,0,8.454-8.814H50.016a9.7,9.7,0,0,0,8.544,8.9v12.5a9.518,9.518,0,0,0-8.454,8.814ZM58.56,9.724A7.659,7.659,0,0,1,51.9,2.8H58.56ZM9.454,2.8A7.753,7.753,0,0,1,2.8,9.814V2.8ZM2.8,25.913a7.753,7.753,0,0,1,6.655,7.015H2.8ZM24.024,45.339l-6.386,9.444-6.476-9.354h2.878a.922.922,0,0,0,.9-.9l-.09-9.713h5.306l.09,9.713a.967.967,0,0,0,.9.9h0Zm26.172,0-6.386,9.444-6.476-9.354h2.878a.922.922,0,0,0,.9-.9l-.09-9.713h5.4l.09,9.713a.967.967,0,0,0,.9.9h0ZM51.9,32.928a7.753,7.753,0,0,1,6.655-7.015v7.015Z" transform="translate(-1 -1)" fill="#ec1218"/>
      </g>
    </g>
    <g id="Group_78" data-name="Group 78" transform="translate(18.088 5.227)">
      <g id="Group_77" data-name="Group 77">
        <path id="Path_890" data-name="Path 890" d="M32.591,5.7A12.682,12.682,0,1,0,45.183,18.381,12.648,12.648,0,0,0,32.591,5.7Zm0,23.474A10.883,10.883,0,1,1,43.384,18.291,10.844,10.844,0,0,1,32.591,29.174Z" transform="translate(-20 -5.7)" fill="#ec1218"/>
      </g>
    </g>
    <g id="Group_80" data-name="Group 80" transform="translate(25.643 9.994)">
      <g id="Group_79" data-name="Group 79">
        <path id="Path_891" data-name="Path 891" d="M34.246,17.565h0l-.09-3.6a7.1,7.1,0,0,1,2.7,1.079l1.259-1.709A8.149,8.149,0,0,0,34.156,11.9V11H32.987v.9a4.459,4.459,0,0,0-2.968,1.169,3.739,3.739,0,0,0-1.169,2.7,3.384,3.384,0,0,0,.989,2.518,7.994,7.994,0,0,0,3.148,1.349v3.687A6.5,6.5,0,0,1,29.749,21.7L28.4,23.322a8.226,8.226,0,0,0,4.677,2.069v1.349h1.169V25.39A4.7,4.7,0,0,0,37.3,24.221a3.42,3.42,0,0,0,1.169-2.7A3.246,3.246,0,0,0,37.484,19,7.766,7.766,0,0,0,34.246,17.565Zm-1.259-.27a4.18,4.18,0,0,1-1.439-.72,1.228,1.228,0,0,1-.36-.989,1.489,1.489,0,0,1,.45-1.079,2.661,2.661,0,0,1,1.349-.54Zm2.7,5.486a3.016,3.016,0,0,1-1.439.54V19.9a4.847,4.847,0,0,1,1.529.72,1.489,1.489,0,0,1,.45,1.079A1.282,1.282,0,0,1,35.685,22.782Z" transform="translate(-28.4 -11)" fill="#ec1218"/>
      </g>
    </g>
    <g id="Group_82" data-name="Group 82" transform="translate(4.777 58.56)">
      <g id="Group_81" data-name="Group 81">
        <path id="Path_892" data-name="Path 892" d="M56.1,65H6.1a.9.9,0,1,0,0,1.8h50.1a.85.85,0,0,0,.9-.9A.98.98,0,0,0,56.1,65Z" transform="translate(-5.2 -65)" fill="#ec1218"/>
      </g>
    </g>
  </g>
</svg>
