<svg xmlns="http://www.w3.org/2000/svg" width="79.531" height="64.269" viewBox="0 0 79.531 64.269">
  <g id="Group_549" data-name="Group 549" transform="translate(-4 -13)">
    <path id="Path_960" data-name="Path 960" d="M40.477,13a11.29,11.29,0,1,0,11.29,11.29A11.3,11.3,0,0,0,40.477,13Zm0,1.737a9.553,9.553,0,1,1-9.553,9.553A9.54,9.54,0,0,1,40.477,14.737ZM17.027,22.553a7.816,7.816,0,1,0,7.816,7.816A7.829,7.829,0,0,0,17.027,22.553Zm0,1.737a6.079,6.079,0,1,1-6.079,6.079A6.066,6.066,0,0,1,17.027,24.29ZM59.421,37.318a.867.867,0,0,0-.706.868V42.61a15.609,15.609,0,0,0-4.885,2.85l-1.113-.651a.909.909,0,0,0-.109-.082A17.685,17.685,0,0,0,26.961,46.22a15.262,15.262,0,0,0-9.553-3.691A13.222,13.222,0,0,0,4,55.692v1.6a.869.869,0,0,0,.868.868H23.107v2.605a.869.869,0,0,0,.868.868H40.531a.869.869,0,1,0,.024-1.737H24.844v-3.04a15.364,15.364,0,0,1,15.633-15.2,15.917,15.917,0,0,1,8.115,2.2l-4.152,7.22a.868.868,0,0,0,.314,1.187l.012.007L48.619,54.5a15.16,15.16,0,0,0-.326,2.8,15.151,15.151,0,0,0,.326,2.8l-3.854,2.225a.869.869,0,0,0-.333,1.183l.007.011,4.342,7.545a.868.868,0,0,0,1.182.332l.012-.006,3.854-2.253a15.609,15.609,0,0,0,4.885,2.85V76.4a.869.869,0,0,0,.868.868h8.685a.869.869,0,0,0,.868-.868V71.976a15.609,15.609,0,0,0,4.885-2.85l3.854,2.253a.869.869,0,0,0,1.187-.314l.007-.011,4.342-7.545a.869.869,0,0,0-.314-1.187l-.011-.007-3.854-2.225a15.151,15.151,0,0,0,.326-2.8,15.16,15.16,0,0,0-.326-2.8l3.854-2.225a.87.87,0,0,0,.332-1.183l-.006-.011-4.342-7.545a.869.869,0,0,0-1.183-.332l-.011.006L74.022,45.46a15.609,15.609,0,0,0-4.885-2.85V38.186a.869.869,0,0,0-.868-.868H59.421Zm1.031,1.737H67.4V43.18a.869.869,0,0,0,.624.842,13.735,13.735,0,0,1,5.346,3.094.87.87,0,0,0,1.032.136l3.583-2.09,3.474,6.026-3.583,2.063a.869.869,0,0,0-.407.95,13.751,13.751,0,0,1,0,6.188.868.868,0,0,0,.407.949L81.459,63.4l-3.474,6.026L74.4,67.336a.868.868,0,0,0-1.032.135,13.735,13.735,0,0,1-5.346,3.094.869.869,0,0,0-.624.842v4.125H60.452V71.406a.869.869,0,0,0-.624-.842,13.735,13.735,0,0,1-5.346-3.094.867.867,0,0,0-1.031-.135l-3.583,2.09L46.394,63.4l3.583-2.063a.869.869,0,0,0,.406-.949,13.751,13.751,0,0,1,0-6.188.87.87,0,0,0-.406-.95l-3.583-2.063,3.474-6.026,3.583,2.09a.869.869,0,0,0,1.031-.136,13.735,13.735,0,0,1,5.346-3.094.869.869,0,0,0,.624-.842ZM17.408,44.266A13.981,13.981,0,0,1,25.929,47.6a16.536,16.536,0,0,0-2.823,8.82H5.737v-.733A11.433,11.433,0,0,1,17.408,44.266Zm46.518,6.079a6.948,6.948,0,1,0,6.948,6.948A6.962,6.962,0,0,0,63.926,50.345Zm0,1.737a5.211,5.211,0,1,1-5.211,5.211A5.2,5.2,0,0,1,63.926,52.082Z" fill="#ec1218"/>
  </g>
</svg>
