<svg xmlns="http://www.w3.org/2000/svg" width="66.08" height="64.674" viewBox="0 0 66.08 64.674">
  <g id="Group_548" data-name="Group 548" transform="translate(-3 -4)">
    <path id="Path_959" data-name="Path 959" d="M26.067,4a.723.723,0,0,0-.572.593l-2.724,20.5H3.571a.726.726,0,0,0-.572.7v5.624a.731.731,0,0,0,.7.7H8.624v5.624a.7.7,0,0,0,.066.307,2.431,2.431,0,0,0,1.34,1.121,4.849,4.849,0,0,0,3.515,0,2.431,2.431,0,0,0,1.34-1.121.7.7,0,0,0,.066-.307V32.119h6.876L17.06,67.861a.735.735,0,0,0,.7.813H33.228a.73.73,0,0,0,.7-.7V32.119h4.218V67.971a.731.731,0,0,0,.7.7H54.317a.733.733,0,0,0,.7-.813L50.254,32.119h6.876v5.624a.7.7,0,0,0,.066.307,2.431,2.431,0,0,0,1.34,1.121,4.849,4.849,0,0,0,3.515,0,2.431,2.431,0,0,0,1.34-1.121.7.7,0,0,0,.066-.307V32.119h4.921a.73.73,0,0,0,.7-.7V25.792a.73.73,0,0,0-.7-.7H49.309l-2.724-20.5a.727.727,0,0,0-.7-.593H38.72a.726.726,0,0,0-.572.7V25.089H33.931V4.7a.73.73,0,0,0-.7-.7Zm.747,1.406h5.712V25.089H24.2Zm12.741,0h5.712l2.614,19.683H39.555ZM4.406,26.5H67.674v4.218H62.753a.731.731,0,0,0-.7.7v6.041a2.382,2.382,0,0,1-1.757.637,2.451,2.451,0,0,1-1.757-.637V31.416a.73.73,0,0,0-.7-.7H14.248a.731.731,0,0,0-.7.7v6.041a2.382,2.382,0,0,1-1.757.637,2.451,2.451,0,0,1-1.757-.637V31.416a.73.73,0,0,0-.7-.7H4.406Zm18.849,5.624h9.27V67.268H18.575Zm16.3,0h9.271L53.5,67.268H39.555Z" transform="translate(0 0)" fill="#ec1218"/>
  </g>
</svg>
